<svg width="23" height="29" viewBox="0 0 23 29" fill="none" xmlns="http://www.w3.org/2000/svg">
<path d="M11.3045 22.609C17.5478 22.609 22.609 17.5478 22.609 11.3045C22.609 5.06119 17.5478 0 11.3045 0C5.06119 0 0 5.06119 0 11.3045C0 17.5478 5.06119 22.609 11.3045 22.609Z" fill="#4C648D"/>
<path d="M11.3047 28.34L15.2905 21.438H7.31885L11.3047 28.34Z" fill="#4C648D"/>
<path d="M11.3046 19.2543C15.6948 19.2543 19.2538 15.6953 19.2538 11.3051C19.2538 6.91492 15.6948 3.35596 11.3046 3.35596C6.91443 3.35596 3.35547 6.91492 3.35547 11.3051C3.35547 15.6953 6.91443 19.2543 11.3046 19.2543Z" fill="white"/>
</svg>
