<svg width="91" height="91" viewBox="0 0 91 91" fill="none" xmlns="http://www.w3.org/2000/svg">
<rect width="91" height="91" fill="#F0E7E7"/>
<path d="M50.3903 42.472L45.0941 33.3052L39.7979 42.472H50.3903Z" fill="#D5C6C6"/>
<path d="M39.3799 43.7911L45.0604 63.1493L50.7353 43.7911H39.3799Z" fill="#D5C6C6"/>
<path d="M46.5322 62.9209L63.3231 43.7911H52.1292L46.5322 62.9209Z" fill="#D5C6C6"/>
<path d="M26.8574 43.7911L43.5202 62.9154L37.9622 43.7911H26.8574Z" fill="#D5C6C6"/>
<path d="M31.9449 33.3052L26.6543 42.472H37.2412L31.9449 33.3052Z" fill="#D5C6C6"/>
<path d="M43.8154 32.8599H33.2285L38.5247 42.0322L43.8154 32.8599Z" fill="#D5C6C6"/>
<path d="M56.9635 32.8599H46.3711L51.6673 42.0322L56.9635 32.8599Z" fill="#D5C6C6"/>
<path d="M63.5309 42.472L58.2347 33.3052L52.9385 42.472H63.5309Z" fill="#D5C6C6"/>
</svg>
