<svg width="26" height="22" viewBox="0 0 26 22" fill="none" xmlns="http://www.w3.org/2000/svg">
<g clip-path="url(#clip0)">
<path d="M16.9775 6.97039L13.4123 0.799805L9.84717 6.97039H16.9775Z" fill="currentColor"/>
<path d="M9.56592 7.85895L13.3897 20.8899L17.2098 7.85895H9.56592Z" fill="currentColor"/>
<path d="M14.3794 20.7362L25.6821 7.85895H18.147L14.3794 20.7362Z" fill="currentColor"/>
<path d="M1.13867 7.85895L12.3552 20.7325L8.61385 7.85895H1.13867Z" fill="currentColor"/>
<path d="M4.5614 0.799805L1 6.97039H8.12654L4.5614 0.799805Z" fill="currentColor"/>
<path d="M12.5504 0.5H5.42383L8.98898 6.67434L12.5504 0.5Z" fill="currentColor"/>
<path d="M21.4013 0.5H14.271L17.8361 6.67434L21.4013 0.5Z" fill="currentColor"/>
<path d="M25.8251 6.97039L22.26 0.799805L18.6948 6.97039H25.8251Z" fill="currentColor"/>
<path d="M16.9775 6.97039L13.4123 0.799805L9.84717 6.97039H16.9775Z" fill="currentColor"/>
<path d="M9.56592 7.85895L13.3897 20.8899L17.2098 7.85895H9.56592Z" fill="currentColor"/>
<path d="M14.3794 20.7362L25.6821 7.85895H18.147L14.3794 20.7362Z" fill="currentColor"/>
<path d="M1.13867 7.85895L12.3552 20.7325L8.61385 7.85895H1.13867Z" fill="currentColor"/>
<path d="M4.5614 0.799805L1 6.97039H8.12654L4.5614 0.799805Z" fill="currentColor"/>
<path d="M12.5504 0.5H5.42383L8.98898 6.67434L12.5504 0.5Z" fill="currentColor"/>
<path d="M21.4013 0.5H14.271L17.8361 6.67434L21.4013 0.5Z" fill="currentColor"/>
<path d="M25.8251 6.97039L22.26 0.799805L18.6948 6.97039H25.8251Z" fill="currentColor"/>
</g>
<defs>
<clipPath id="clip0">
<rect width="26" height="21" fill="white" transform="translate(0 0.5)"/>
</clipPath>
</defs>
</svg>
