<svg width="83" height="61" viewBox="0 0 83 61" fill="none" xmlns="http://www.w3.org/2000/svg">
<path d="M32.0371 44.4899L27.5625 39.9038L25.717 46.0396L32.0371 44.4899Z" fill="white"/>
<path d="M25.657 46.874L31.8225 57.3641L32.4324 45.2126L25.657 46.874Z" fill="white"/>
<path d="M32.6669 57.0148L39.942 43.3705L33.263 45.0083L32.6669 57.0148Z" fill="white"/>
<path d="M18.1874 48.7051L30.872 57.4515L24.8132 47.0803L18.1874 48.7051Z" fill="white"/>
<path d="M19.7173 41.8275L17.8751 47.9625L24.1919 46.4135L19.7173 41.8275Z" fill="white"/>
<path d="M26.7347 39.8299L20.4179 41.3789L24.8934 45.9682L26.7347 39.8299Z" fill="white"/>
<path d="M34.5799 37.9073L28.2598 39.457L32.7352 44.0463L34.5799 37.9073Z" fill="white"/>
<path d="M39.8792 42.566L35.4046 37.98L33.5591 44.1158L39.8792 42.566Z" fill="white"/>
<path d="M32.0371 44.4899L27.5625 39.9038L25.717 46.0396L32.0371 44.4899Z" fill="white"/>
<path d="M25.657 46.874L31.8225 57.3641L32.4324 45.2126L25.657 46.874Z" fill="white"/>
<path d="M32.6669 57.0148L39.942 43.3705L33.263 45.0083L32.6669 57.0148Z" fill="white"/>
<path d="M18.1874 48.7051L30.872 57.4515L24.8132 47.0803L18.1874 48.7051Z" fill="white"/>
<path d="M19.7173 41.8275L17.8751 47.9625L24.1919 46.4135L19.7173 41.8275Z" fill="white"/>
<path d="M26.7347 39.8299L20.4179 41.3789L24.8934 45.9682L26.7347 39.8299Z" fill="white"/>
<path d="M34.5799 37.9073L28.2598 39.457L32.7352 44.0463L34.5799 37.9073Z" fill="white"/>
<path d="M39.8792 42.566L35.4046 37.98L33.5591 44.1158L39.8792 42.566Z" fill="white"/>
<g clip-path="url(#clip0)">
<path d="M43.8201 22.5864L40.0098 17.6826L37.5646 23.3911L43.8201 22.5864Z" fill="white"/>
<path d="M37.4162 24.1865L42.2124 34.9604L44.1223 23.3239L37.4162 24.1865Z" fill="white"/>
<path d="M43.0636 34.7168L51.5552 22.368L44.9445 23.2184L43.0636 34.7168Z" fill="white"/>
<path d="M30.0229 25.1377L41.2874 34.9419L36.581 24.2941L30.0229 25.1377Z" fill="white"/>
<path d="M32.2448 18.6811L29.8029 24.3891L36.0551 23.5849L32.2448 18.6811Z" fill="white"/>
<path d="M39.2206 17.5219L32.9684 18.3262L36.7791 23.2332L39.2206 17.5219Z" fill="white"/>
<path d="M46.9855 16.5224L40.73 17.3271L44.5408 22.2342L46.9855 16.5224Z" fill="white"/>
<path d="M51.5821 21.5874L47.7718 16.6836L45.3266 22.3921L51.5821 21.5874Z" fill="white"/>
<path d="M43.8201 22.5864L40.0098 17.6826L37.5646 23.3911L43.8201 22.5864Z" fill="white"/>
<path d="M37.4162 24.1865L42.2124 34.9604L44.1223 23.3239L37.4162 24.1865Z" fill="white"/>
<path d="M43.0636 34.7168L51.5552 22.368L44.9445 23.2184L43.0636 34.7168Z" fill="white"/>
<path d="M30.0229 25.1377L41.2874 34.9419L36.581 24.2941L30.0229 25.1377Z" fill="white"/>
<path d="M32.2448 18.6811L29.8029 24.3891L36.0551 23.5849L32.2448 18.6811Z" fill="white"/>
<path d="M39.2206 17.5219L32.9684 18.3262L36.7791 23.2332L39.2206 17.5219Z" fill="white"/>
<path d="M46.9855 16.5224L40.73 17.3271L44.5408 22.2342L46.9855 16.5224Z" fill="white"/>
<path d="M51.5821 21.5874L47.7718 16.6836L45.3266 22.3921L51.5821 21.5874Z" fill="white"/>
</g>
<path d="M59.0889 45.3811L58.453 38.9488L53.1332 42.6202L59.0889 45.3811Z" fill="white"/>
<path d="M52.5612 43.2383L50.8095 55.3873L58.9459 46.198L52.5612 43.2383Z" fill="white"/>
<path d="M51.6945 55.6451L66.0225 49.479L59.7286 46.5614L51.6945 55.6451Z" fill="white"/>
<path d="M45.5222 39.9756L50.0053 54.8582L51.766 42.87L45.5222 39.9756Z" fill="white"/>
<path d="M51.0601 35.5206L45.7435 39.1934L51.6961 41.9529L51.0601 35.5206Z" fill="white"/>
<path d="M57.8469 38.3708L51.8943 35.6113L52.5289 42.0467L57.8469 38.3708Z" fill="white"/>
<path d="M65.2397 41.797L59.284 39.0361L59.9186 45.4715L65.2397 41.797Z" fill="white"/>
<path d="M66.4789 48.8069L65.8429 42.3746L60.5232 46.046L66.4789 48.8069Z" fill="white"/>
<path d="M59.0889 45.3811L58.453 38.9488L53.1332 42.6202L59.0889 45.3811Z" fill="white"/>
<path d="M52.5612 43.2383L50.8095 55.3873L58.9459 46.198L52.5612 43.2383Z" fill="white"/>
<path d="M51.6945 55.6451L66.0225 49.479L59.7286 46.5614L51.6945 55.6451Z" fill="white"/>
<path d="M45.5222 39.9756L50.0053 54.8582L51.766 42.87L45.5222 39.9756Z" fill="white"/>
<path d="M51.0601 35.5206L45.7435 39.1934L51.6961 41.9529L51.0601 35.5206Z" fill="white"/>
<path d="M57.8469 38.3708L51.8943 35.6113L52.5289 42.0467L57.8469 38.3708Z" fill="white"/>
<path d="M65.2397 41.797L59.284 39.0361L59.9186 45.4715L65.2397 41.797Z" fill="white"/>
<path d="M66.4789 48.8069L65.8429 42.3746L60.5232 46.046L66.4789 48.8069Z" fill="white"/>
<path d="M17.6832 26.0355C18.2486 25.739 18.7358 25.2901 19.1331 24.6574C19.4384 24.1711 19.6902 23.5767 19.8877 22.8575C20.0684 23.5847 20.304 24.1838 20.5986 24.672C20.9785 25.3018 21.4562 25.7473 22.0284 26.0406C21.4503 26.3677 20.9727 26.8512 20.5939 27.5055C20.3038 28.0068 20.0707 28.6103 19.8911 29.3268C19.6937 28.606 19.442 27.9998 19.1372 27.4968C18.7407 26.8424 18.2532 26.3609 17.6832 26.0355Z" stroke="white" stroke-linejoin="bevel"/>
<path d="M64.9247 6.6659C65.314 6.41852 65.6483 6.06811 65.9231 5.6012C66.0947 5.30964 66.2437 4.97155 66.3701 4.58192C66.4877 4.97656 66.6288 5.31804 66.7948 5.61154C67.0578 6.07648 67.3852 6.42505 67.7774 6.67051C67.3807 6.94141 67.0529 7.31714 66.7905 7.80067C66.6281 8.10006 66.4894 8.44326 66.3733 8.83337C66.247 8.43952 66.0982 8.09359 65.9269 7.79217C65.6524 7.30882 65.3175 6.93501 64.9247 6.6659Z" fill="white" stroke="white" stroke-linejoin="bevel"/>
<path d="M77.3026 38.2067C77.7625 37.9452 78.1612 37.5658 78.4898 37.0472C78.7295 36.6692 78.9314 36.218 79.0955 35.684C79.2467 36.224 79.4366 36.679 79.668 37.0589C79.9826 37.5754 80.3733 37.9525 80.837 38.2115C80.3679 38.4987 79.977 38.9063 79.6633 39.4431C79.436 39.832 79.2487 40.29 79.0988 40.823C78.9349 40.2859 78.7331 39.8252 78.4941 39.4345C78.1659 38.898 77.7666 38.4922 77.3026 38.2067Z" stroke="white" stroke-linejoin="bevel"/>
<path d="M5.53333 38.7337C3.68889 38.7337 2.76667 40.2515 2.76667 45.3737C2.76667 40.2515 1.67153 38.7337 0 38.7337C1.67153 38.7337 2.76667 37.5006 2.76667 32.0938C2.76667 37.5481 3.68889 38.7337 5.53333 38.7337Z" fill="white"/>
<path d="M4.32199 15.5202C4.74098 15.2864 5.11884 14.9514 5.43974 14.4841C5.68418 14.1282 5.88946 13.7033 6.05566 13.2012C6.20878 13.7085 6.40169 14.1367 6.6377 14.4943C6.9461 14.9616 7.31663 15.2939 7.73675 15.5249C7.31143 15.7804 6.94012 16.1394 6.63256 16.6252C6.40095 16.9911 6.21069 17.4217 6.05896 17.9222C5.89295 17.4174 5.68798 16.9841 5.44434 16.6164C5.12421 16.1334 4.7455 15.7753 4.32199 15.5202Z" fill="white" stroke="white" stroke-linejoin="bevel"/>
<path d="M58.3406 27.1383C58.6985 26.9149 59.0113 26.6059 59.2729 26.1985C59.4491 25.9241 59.6015 25.6059 59.7303 25.2394C59.85 25.6101 59.9941 25.9311 60.1645 26.2072C60.4153 26.6136 60.7217 26.9212 61.0812 27.1429C60.717 27.3871 60.4099 27.7182 60.1597 28.1409C59.9932 28.4222 59.8516 28.7446 59.7335 29.1108C59.6049 28.7407 59.4528 28.4155 59.2772 28.1322C59.01 27.701 58.6941 27.3753 58.3406 27.1383Z" fill="white" stroke="white" stroke-linejoin="bevel"/>
<defs>
<clipPath id="clip0">
<rect width="22.9982" height="18.2069" fill="white" transform="translate(28.2098 18.9385) rotate(-7.33019)"/>
</clipPath>
</defs>
</svg>
