<svg width="22" height="22" viewBox="0 0 22 22" fill="none" xmlns="http://www.w3.org/2000/svg">
<path d="M3.16719 17.9717C3.16719 18.4063 3.51831 18.7574 3.95291 18.7574H18.0467C18.4813 18.7574 18.8324 18.4063 18.8324 17.9717V12.2507C18.8324 7.92436 15.3261 4.41811 10.9998 4.41811C6.67345 4.41811 3.16719 7.92436 3.16719 12.2507V17.9717ZM4.93505 12.2507C4.93505 8.90159 7.65068 6.18597 10.9998 6.18597C14.3489 6.18597 17.0645 8.90159 17.0645 12.2507V16.9895H8.348V12.7909C8.348 12.6558 8.23751 12.5453 8.10246 12.5453H7.02211C6.88706 12.5453 6.77657 12.6558 6.77657 12.7909V16.9895H4.93505V12.2507ZM3.75402 6.05092L4.72635 5.0786C4.80246 5.00248 4.80246 4.87726 4.72635 4.80115L3.05916 3.13396C3.02224 3.0974 2.97239 3.07689 2.92043 3.07689C2.86848 3.07689 2.81862 3.0974 2.7817 3.13396L1.80938 4.10628C1.77283 4.1432 1.75232 4.19305 1.75232 4.24501C1.75232 4.29696 1.77283 4.34682 1.80938 4.38373L3.47657 6.05092C3.55269 6.12704 3.67545 6.12704 3.75402 6.05092ZM20.1951 4.10628L19.2228 3.13396C19.1859 3.0974 19.136 3.07689 19.084 3.07689C19.0321 3.07689 18.9822 3.0974 18.9453 3.13396L17.2781 4.80115C17.2416 4.83806 17.2211 4.88792 17.2211 4.93987C17.2211 4.99183 17.2416 5.04168 17.2781 5.0786L18.2505 6.05092C18.3266 6.12704 18.4518 6.12704 18.5279 6.05092L20.1951 4.38373C20.2712 4.30516 20.2712 4.18239 20.1951 4.10628ZM18.8569 20.3288H3.14264C2.70804 20.3288 2.35693 20.6799 2.35693 21.1145V21.7038C2.35693 21.8119 2.44532 21.9003 2.55336 21.9003H19.4462C19.5543 21.9003 19.6426 21.8119 19.6426 21.7038V21.1145C19.6426 20.6799 19.2915 20.3288 18.8569 20.3288ZM10.3123 2.84668H11.6873C11.7953 2.84668 11.8837 2.75829 11.8837 2.65025V0.293108C11.8837 0.185073 11.7953 0.0966797 11.6873 0.0966797H10.3123C10.2042 0.0966797 10.1159 0.185073 10.1159 0.293108V2.65025C10.1159 2.75829 10.2042 2.84668 10.3123 2.84668Z" fill="#4C648D"/>
</svg>
