<svg width="30" height="30" viewBox="0 0 30 30" fill="none" xmlns="http://www.w3.org/2000/svg">
<path d="M16.4971 1.13534L18.9608 9.07082C19.0624 9.40071 19.2614 9.68836 19.5293 9.89239C19.7972 10.0964 20.1204 10.2063 20.4518 10.2063H28.4314C28.7626 10.2065 29.0851 10.3162 29.3531 10.5199C29.621 10.7235 29.8204 11.0105 29.9229 11.3399C30.0253 11.6693 30.0258 12.0242 29.9237 12.3537C29.8216 12.6832 29.6225 12.9705 29.3548 13.1745L22.9 18.0792C22.6323 18.2831 22.4328 18.5703 22.3303 18.8997C22.2277 19.2291 22.2273 19.584 22.329 19.9137L24.7948 27.8493C24.8972 28.1788 24.897 28.5339 24.7948 28.8635C24.6925 29.1932 24.493 29.4805 24.225 29.6843C23.957 29.8882 23.6343 29.9981 23.3029 29.9983C22.9715 29.9985 22.6486 29.8891 22.3803 29.6856L15.919 24.7791C15.6521 24.5755 15.3305 24.4658 15.0002 24.4658C14.6699 24.4658 14.3479 24.5755 14.081 24.7791L7.62673 29.6856C7.35851 29.8898 7.03516 29.9999 6.70338 30C6.37161 30.0001 6.0484 29.8903 5.78003 29.6863C5.51165 29.4824 5.31169 29.1947 5.2094 28.8646C5.10712 28.5345 5.10771 28.1791 5.21065 27.8493L7.67599 19.9137C7.77712 19.5845 7.77711 19.2303 7.67557 18.9012C7.57404 18.572 7.37644 18.2845 7.11037 18.0792L0.64899 13.1745C0.380419 12.9713 0.180407 12.6843 0.0775295 12.3548C-0.0253481 12.0253 -0.0259168 11.6702 0.0762772 11.3404C0.178471 11.0106 0.377919 10.7233 0.646068 10.5195C0.914217 10.3157 1.23712 10.2061 1.56859 10.2063H9.55192C9.8834 10.2066 10.2065 10.0968 10.4744 9.89272C10.7424 9.68865 10.9411 9.40085 11.0426 9.07082L13.5083 1.13534C13.6109 0.805332 13.8105 0.517716 14.0789 0.313765C14.3474 0.109815 14.6709 0 15.0027 0C15.3345 0 15.6576 0.109815 15.9261 0.313765C16.1945 0.517716 16.3945 0.805332 16.4971 1.13534Z" fill="#AFB3BB"/>
</svg>
