<svg width="17" height="18" viewBox="0 0 17 18" fill="none" xmlns="http://www.w3.org/2000/svg">
<path fill-rule="evenodd" clip-rule="evenodd" d="M14.7917 9.65767C14.8239 9.3898 14.8453 9.11121 14.8453 8.82191C14.8453 8.53261 14.8239 8.25402 14.781 7.98615L16.5918 6.57178C16.7526 6.44321 16.7954 6.20748 16.699 6.02532L14.9846 3.0573C14.8774 2.86443 14.6524 2.80014 14.4596 2.86443L12.3273 3.72162C11.8773 3.37875 11.4058 3.10016 10.8808 2.88586L10.5593 0.614306C10.5272 0.400008 10.3451 0.25 10.1308 0.25H6.70199C6.48769 0.25 6.31625 0.400008 6.28411 0.614306L5.96266 2.88586C5.43763 3.10016 4.95546 3.38946 4.51615 3.72162L2.38389 2.86443C2.19102 2.78943 1.96601 2.86443 1.85886 3.0573L0.144476 6.02532C0.0373275 6.21819 0.0801871 6.44321 0.251625 6.57178L2.06244 7.98615C2.01958 8.25402 1.98744 8.54332 1.98744 8.82191C1.98744 9.1005 2.00887 9.3898 2.05173 9.65767L0.24091 11.072C0.0801871 11.2006 0.0373275 11.4363 0.133762 11.6185L1.84814 14.5865C1.95529 14.7794 2.18031 14.8437 2.37317 14.7794L4.50544 13.9222C4.95546 14.2651 5.42692 14.5437 5.95195 14.758L6.27339 17.0295C6.31625 17.2438 6.48769 17.3938 6.70199 17.3938H10.1308C10.3451 17.3938 10.5272 17.2438 10.5486 17.0295L10.8701 14.758C11.3951 14.5437 11.8773 14.2544 12.3166 13.9222L14.4489 14.7794C14.6417 14.8544 14.8667 14.7794 14.9739 14.5865L16.6883 11.6185C16.7954 11.4256 16.7526 11.2006 16.5811 11.072L14.7917 9.65767ZM8.41632 12.0354C6.64837 12.0354 5.20186 10.5889 5.20186 8.82091C5.20186 7.05296 6.64837 5.60645 8.41632 5.60645C10.1843 5.60645 11.6308 7.05296 11.6308 8.82091C11.6308 10.5889 10.1843 12.0354 8.41632 12.0354Z" fill="#C0C0C0" fill-opacity="0.87"/>
</svg>
