<svg width="12" height="11" viewBox="0 0 12 11" fill="none" xmlns="http://www.w3.org/2000/svg">
<path d="M3.96133 3.7721V6H4.69475V3.7721H5.54834V3.17127H3.10773V3.7721H3.96133ZM5.84548 3.17127V6H6.58995V3.17127H5.84548ZM6.97048 3.17127V6H7.71495V5.14917H8.15142C8.79782 5.14917 9.22186 4.76796 9.22186 4.16575C9.22186 3.56906 8.80749 3.17127 8.17766 3.17127H6.97048ZM7.71495 4.56906V3.76796H8.00501C8.28401 3.76796 8.447 3.91713 8.447 4.16575C8.447 4.41298 8.28401 4.56906 8.00501 4.56906H7.71495Z" fill="#AFB3BB"/>
<path d="M10.8 0H1.2C0.54 0 0 0.495 0 1.1V11L2.4 8.8H10.8C11.46 8.8 12 8.305 12 7.7V1.1C12 0.495 11.46 0 10.8 0ZM10.8 7.7H2.4L1.2 8.8V1.1H10.8V7.7Z" fill="#AFB3BB"/>
</svg>
