<svg width="118" height="131" viewBox="0 0 118 131" fill="none" xmlns="http://www.w3.org/2000/svg">
<path d="M58.89 130.92L17.2467 117.365V60.0272L58.89 73.5824V130.92Z" fill="#637DA9"/>
<path d="M58.8901 130.92L100.533 117.365V60.0272L58.8901 73.5824V130.92Z" fill="#4C648D"/>
<path d="M74 99.9999L59 73.9999L100.5 72.9999V90.9999L74 99.9999Z" fill="#3E557D"/>
<path d="M43.8193 99.9999L59 73.9999L17 72.9999V90.9999L43.8193 99.9999Z" fill="#4C648D"/>
<path d="M58.8901 73.6193L100.533 60.0641L117.617 77.8167L75.9738 91.3719L58.8901 73.6193Z" fill="#637DA9"/>
<path d="M58.8901 73.6198L17.2468 60.0646L0.163147 77.8172L41.8065 91.3724L58.8901 73.6198Z" fill="#7E97C2"/>
<g clip-path="url(#clip0)">
<path d="M48.4093 47.8169L43.5687 42.8558L41.5723 49.4934L48.4093 47.8169Z" fill="#F07A7A"/>
<path d="M41.5075 50.3945L48.1771 61.7424L48.8369 48.5973L41.5075 50.3945Z" fill="#F07A7A"/>
<path d="M49.0906 61.3653L56.9607 46.6053L49.7355 48.377L49.0906 61.3653Z" fill="#F07A7A"/>
<path d="M33.427 52.376L47.1489 61.8376L40.5946 50.6184L33.427 52.376Z" fill="#F07A7A"/>
<path d="M35.082 44.9368L33.0892 51.5735L39.9225 49.8979L35.082 44.9368Z" fill="#F07A7A"/>
<path d="M42.6733 42.7766L35.84 44.4523L40.6814 49.4169L42.6733 42.7766Z" fill="#F07A7A"/>
<path d="M51.16 40.6956L44.3231 42.3721L49.1644 47.3367L51.16 40.6956Z" fill="#F07A7A"/>
<path d="M56.8927 45.7366L52.0522 40.7755L50.0558 47.4131L56.8927 45.7366Z" fill="#F07A7A"/>
<path d="M48.4093 47.8169L43.5687 42.8558L41.5723 49.4934L48.4093 47.8169Z" fill="#F07A7A"/>
<path d="M41.5075 50.3945L48.1771 61.7424L48.8369 48.5973L41.5075 50.3945Z" fill="#F07A7A"/>
<path d="M49.0906 61.3653L56.9607 46.6053L49.7355 48.377L49.0906 61.3653Z" fill="#F07A7A"/>
<path d="M33.427 52.376L47.1489 61.8376L40.5946 50.6184L33.427 52.376Z" fill="#F07A7A"/>
<path d="M35.082 44.9368L33.0892 51.5735L39.9225 49.8979L35.082 44.9368Z" fill="#F07A7A"/>
<path d="M42.6733 42.7766L35.84 44.4523L40.6814 49.4169L42.6733 42.7766Z" fill="#F07A7A"/>
<path d="M51.16 40.6956L44.3231 42.3721L49.1644 47.3367L51.16 40.6956Z" fill="#F07A7A"/>
<path d="M56.8927 45.7366L52.0522 40.7755L50.0558 47.4131L56.8927 45.7366Z" fill="#F07A7A"/>
</g>
<g clip-path="url(#clip1)">
<path d="M61.1558 24.1211L57.0339 18.8163L54.3888 24.9916L61.1558 24.1211Z" fill="#FBC6C6"/>
<path d="M54.2283 25.8524L59.4166 37.5073L61.4828 24.9192L54.2283 25.8524Z" fill="#FBC6C6"/>
<path d="M60.3374 37.2435L69.5235 23.8849L62.3722 24.8048L60.3374 37.2435Z" fill="#FBC6C6"/>
<path d="M46.2303 26.8812L58.416 37.4871L53.3247 25.9686L46.2303 26.8812Z" fill="#FBC6C6"/>
<path d="M48.6339 19.8969L45.9924 26.0717L52.7559 25.2017L48.6339 19.8969Z" fill="#FBC6C6"/>
<path d="M56.1801 18.6426L49.4166 19.5127L53.539 24.821L56.1801 18.6426Z" fill="#FBC6C6"/>
<path d="M64.5801 17.562L57.813 18.4325L61.9354 23.7408L64.5801 17.562Z" fill="#FBC6C6"/>
<path d="M69.5526 23.0409L65.4307 17.7361L62.7855 23.9114L69.5526 23.0409Z" fill="#FBC6C6"/>
<path d="M61.1558 24.1211L57.0339 18.8163L54.3888 24.9916L61.1558 24.1211Z" fill="#FBC6C6"/>
<path d="M54.2283 25.8524L59.4166 37.5073L61.4828 24.9192L54.2283 25.8524Z" fill="#FBC6C6"/>
<path d="M60.3374 37.2435L69.5235 23.8849L62.3722 24.8048L60.3374 37.2435Z" fill="#FBC6C6"/>
<path d="M46.2303 26.8812L58.416 37.4871L53.3247 25.9686L46.2303 26.8812Z" fill="#FBC6C6"/>
<path d="M48.6339 19.8969L45.9924 26.0717L52.7559 25.2017L48.6339 19.8969Z" fill="#FBC6C6"/>
<path d="M56.1801 18.6426L49.4166 19.5127L53.539 24.821L56.1801 18.6426Z" fill="#FBC6C6"/>
<path d="M64.5801 17.562L57.813 18.4325L61.9354 23.7408L64.5801 17.562Z" fill="#FBC6C6"/>
<path d="M69.5526 23.0409L65.4307 17.7361L62.7855 23.9114L69.5526 23.0409Z" fill="#FBC6C6"/>
</g>
<g clip-path="url(#clip2)">
<path d="M77.6731 48.7807L76.9851 41.8224L71.2304 45.7941L77.6731 48.7807Z" fill="#F0887A"/>
<path d="M70.6115 46.4631L68.7167 59.6056L77.5183 49.6649L70.6115 46.4631Z" fill="#F0887A"/>
<path d="M69.674 59.8841L85.1737 53.2137L78.3651 50.0575L69.674 59.8841Z" fill="#F0887A"/>
<path d="M62.9969 42.9333L67.8466 59.033L69.7513 46.0645L62.9969 42.9333Z" fill="#F0887A"/>
<path d="M68.9877 38.115L63.2363 42.0882L69.6757 45.0733L68.9877 38.115Z" fill="#F0887A"/>
<path d="M76.3295 41.1959L69.8901 38.2108L70.5766 45.1724L76.3295 41.1959Z" fill="#F0887A"/>
<path d="M84.3269 44.9033L77.8842 41.9166L78.5706 48.8782L84.3269 44.9033Z" fill="#F0887A"/>
<path d="M85.6674 52.4866L84.9794 45.5284L79.2247 49.5L85.6674 52.4866Z" fill="#F0887A"/>
<path d="M77.6731 48.7807L76.9851 41.8224L71.2304 45.7941L77.6731 48.7807Z" fill="#F0887A"/>
<path d="M70.6115 46.4631L68.7167 59.6056L77.5183 49.6649L70.6115 46.4631Z" fill="#F0887A"/>
<path d="M69.674 59.8841L85.1737 53.2137L78.3651 50.0575L69.674 59.8841Z" fill="#F0887A"/>
<path d="M62.9969 42.9333L67.8466 59.033L69.7513 46.0645L62.9969 42.9333Z" fill="#F0887A"/>
<path d="M68.9877 38.115L63.2363 42.0882L69.6757 45.0733L68.9877 38.115Z" fill="#F0887A"/>
<path d="M76.3295 41.1959L69.8901 38.2108L70.5766 45.1724L76.3295 41.1959Z" fill="#F0887A"/>
<path d="M84.3269 44.9033L77.8842 41.9166L78.5706 48.8782L84.3269 44.9033Z" fill="#F0887A"/>
<path d="M85.6674 52.4866L84.9794 45.5284L79.2247 49.5L85.6674 52.4866Z" fill="#F0887A"/>
</g>
<path d="M33.0455 28.0874C33.6913 27.7866 34.2669 27.3193 34.7443 26.6241C35.1441 26.0419 35.4652 25.3127 35.7058 24.4111C35.9243 25.3218 36.2229 26.0561 36.6083 26.6401C37.0663 27.334 37.6315 27.7962 38.2842 28.0927C37.6249 28.4248 37.0594 28.9285 36.6032 29.6493C36.223 30.2498 35.9269 30.9895 35.7093 31.8844C35.4688 30.9846 35.1479 30.2424 34.7489 29.6405C34.2731 28.9225 33.697 28.4191 33.0455 28.0874Z" stroke="#F07A7A" stroke-linejoin="bevel"/>
<path d="M83.9081 6.6423C84.3111 6.4075 84.6737 6.07093 84.9805 5.60182C85.1988 5.26815 85.384 4.8737 85.5365 4.41132C85.6773 4.87878 85.8518 5.27654 86.0626 5.61194C86.3501 6.06928 86.7031 6.40835 87.1179 6.6469C86.6979 6.91057 86.3444 7.27637 86.0578 7.75178C85.8511 8.09459 85.6791 8.49458 85.5397 8.9561C85.3875 8.49048 85.2025 8.08775 84.9849 7.74307C84.679 7.25848 84.3157 6.89862 83.9081 6.6423Z" fill="#F07A7A" stroke="#F07A7A" stroke-linejoin="bevel"/>
<path d="M97.2325 40.4526C97.7533 40.1838 98.2197 39.7817 98.6102 39.2013C98.9178 38.744 99.1709 38.1856 99.3691 37.5112C99.5505 38.1927 99.7873 38.7553 100.084 39.2144C100.459 39.7943 100.917 40.1925 101.441 40.4578C100.899 40.7604 100.444 41.1987 100.079 41.7875C99.7869 42.2585 99.5527 42.825 99.3725 43.4963C99.1745 42.8205 98.9215 42.2514 98.6147 41.7787C98.2255 41.1793 97.7585 40.7477 97.2325 40.4526Z" stroke="#FBC6C6" stroke-linejoin="bevel"/>
<path d="M20.5399 41.4255C18.0896 41.4255 16.8645 42.9377 16.8645 48.0413C16.8645 42.9377 15.4096 41.4255 13.189 41.4255C15.4096 41.4255 16.8645 40.1968 16.8645 34.8096C16.8645 40.2441 18.0896 41.4255 20.5399 41.4255Z" fill="#F0887A"/>
<path d="M18.8696 16.7185C19.2725 16.4837 19.6352 16.1471 19.942 15.678C20.1602 15.3443 20.3455 14.9499 20.4979 14.4875C20.6387 14.9549 20.8133 15.3527 21.0241 15.6881C21.3115 16.1455 21.6645 16.4845 22.0794 16.7231C21.6593 16.9867 21.3058 17.3525 21.0192 17.8279C20.8125 18.1708 20.6406 18.5708 20.5012 19.0323C20.3489 18.5667 20.1639 18.1639 19.9463 17.8192C19.6405 17.3347 19.2771 16.9748 18.8696 16.7185Z" fill="#FBC6C6" stroke="#FBC6C6" stroke-linejoin="bevel"/>
<path d="M76.58 29.5432C76.983 29.3084 77.3456 28.9718 77.6524 28.5027C77.8706 28.169 78.0559 27.7746 78.2083 27.3122C78.3492 27.7797 78.5237 28.1774 78.7345 28.5128C79.022 28.9702 79.3749 29.3092 79.7898 29.5478C79.3698 29.8115 79.0163 30.1773 78.7296 30.6527C78.523 30.9955 78.351 31.3955 78.2116 31.857C78.0594 31.3914 77.8743 30.9886 77.6568 30.6439C77.3509 30.1594 76.9875 29.7995 76.58 29.5432Z" fill="#F0887A" stroke="#F0887A" stroke-linejoin="bevel"/>
<defs>
<clipPath id="clip0">
<rect width="25.6689" height="20.3212" fill="white" transform="translate(30.6392 45.7275) rotate(-13.7779)"/>
</clipPath>
<clipPath id="clip1">
<rect width="24.8788" height="19.6957" fill="white" transform="translate(44.269 20.1748) rotate(-7.33019)"/>
</clipPath>
<clipPath id="clip2">
<rect width="25.8944" height="20.4998" fill="white" transform="translate(64.9893 35.939) rotate(24.871)"/>
</clipPath>
</defs>
</svg>
