<svg width="10" height="10" viewBox="0 0 10 10" fill="none" xmlns="http://www.w3.org/2000/svg">
<path d="M4.05544 0.717389C4.36673 -0.178171 5.63327 -0.178172 5.94456 0.717388L6.41733 2.07747C6.55465 2.47254 6.92334 2.74041 7.34152 2.74893L8.78112 2.77827C9.72905 2.79758 10.1204 4.00213 9.36489 4.57493L8.21747 5.44485C7.88417 5.69753 7.74335 6.13096 7.86446 6.53129L8.28142 7.9095C8.55598 8.817 7.53133 9.56145 6.75309 9.01991L5.57118 8.19746C5.22786 7.95856 4.77214 7.95856 4.42882 8.19746L3.24691 9.01991C2.46867 9.56145 1.44402 8.817 1.71858 7.90951L2.13554 6.53129C2.25665 6.13096 2.11583 5.69753 1.78253 5.44485L0.635109 4.57493C-0.120424 4.00213 0.270956 2.79758 1.21888 2.77827L2.65848 2.74893C3.07665 2.74041 3.44535 2.47254 3.58267 2.07747L4.05544 0.717389Z" fill="#4C648D"/>
</svg>
