<svg width="14" height="14" viewBox="0 0 14 14" fill="none" xmlns="http://www.w3.org/2000/svg">
<path d="M6.99449 1.16663C3.77449 1.16663 1.16699 3.77996 1.16699 6.99996C1.16699 10.22 3.77449 12.8333 6.99449 12.8333C10.2203 12.8333 12.8337 10.22 12.8337 6.99996C12.8337 3.77996 10.2203 1.16663 6.99449 1.16663ZM7.00033 11.6666C4.42199 11.6666 2.33366 9.57829 2.33366 6.99996C2.33366 4.42163 4.42199 2.33329 7.00033 2.33329C9.57866 2.33329 11.667 4.42163 11.667 6.99996C11.667 9.57829 9.57866 11.6666 7.00033 11.6666Z" fill="#4C648D"/>
<path d="M7.29199 4.08337H6.41699V7.58337L9.47949 9.42087L9.91699 8.70337L7.29199 7.14587V4.08337Z" fill="#4C648D"/>
</svg>
