<svg width="14" height="14" viewBox="0 0 14 14" fill="none" xmlns="http://www.w3.org/2000/svg">
<path d="M6.99449 1.16663C3.77449 1.16663 1.16699 3.77996 1.16699 6.99996C1.16699 10.22 3.77449 12.8333 6.99449 12.8333C10.2203 12.8333 12.8337 10.22 12.8337 6.99996C12.8337 3.77996 10.2203 1.16663 6.99449 1.16663ZM11.037 4.66663H9.31616C9.12949 3.93746 8.86116 3.23746 8.51116 2.58996C9.58449 2.95746 10.477 3.70413 11.037 4.66663ZM7.00033 2.35663C7.48449 3.05663 7.86366 3.83246 8.11449 4.66663H5.88616C6.13699 3.83246 6.51616 3.05663 7.00033 2.35663ZM2.48533 8.16663C2.39199 7.79329 2.33366 7.40246 2.33366 6.99996C2.33366 6.59746 2.39199 6.20663 2.48533 5.83329H4.45699C4.41033 6.21829 4.37533 6.60329 4.37533 6.99996C4.37533 7.39663 4.41033 7.78163 4.45699 8.16663H2.48533ZM2.96366 9.33329H4.68449C4.87116 10.0625 5.13949 10.7625 5.48949 11.41C4.41616 11.0425 3.52366 10.3016 2.96366 9.33329ZM4.68449 4.66663H2.96366C3.52366 3.69829 4.41616 2.95746 5.48949 2.58996C5.13949 3.23746 4.87116 3.93746 4.68449 4.66663ZM7.00033 11.6433C6.51616 10.9433 6.13699 10.1675 5.88616 9.33329H8.11449C7.86366 10.1675 7.48449 10.9433 7.00033 11.6433ZM8.36533 8.16663H5.63533C5.58283 7.78163 5.54199 7.39663 5.54199 6.99996C5.54199 6.60329 5.58283 6.21246 5.63533 5.83329H8.36533C8.41783 6.21246 8.45866 6.60329 8.45866 6.99996C8.45866 7.39663 8.41783 7.78163 8.36533 8.16663ZM8.51116 11.41C8.86116 10.7625 9.12949 10.0625 9.31616 9.33329H11.037C10.477 10.2958 9.58449 11.0425 8.51116 11.41ZM9.54366 8.16663C9.59033 7.78163 9.62533 7.39663 9.62533 6.99996C9.62533 6.60329 9.59033 6.21829 9.54366 5.83329H11.5153C11.6087 6.20663 11.667 6.59746 11.667 6.99996C11.667 7.40246 11.6087 7.79329 11.5153 8.16663H9.54366Z" fill="#4C648D"/>
</svg>
